# xmcd
#
# Track frame offsets:
#	151
#	14544
#	26015
#	43528
#	57113
#	73554
#	87315
#	104482
#	117417
#	133366
#	145515
#	164858
#	178859
#	193648
#	208433
#	222386
#	237501
#	249444
#
# Disc length: 3539 seconds
#
# Revision: 1
# Processed by: cddbd v1.5.1PL0 Copyright (c) Steve Scherf et al.
# Submitted via: EasyCDDAExtractor 5.0.7
#
DISCID=1c0dd112
DTITLE=Various Artist - slagervasara 98
DYEAR=1998
DGENRE=Latvian
TTITLE0=Beidzot majas
TTITLE1=Maza maza meitina
TTITLE2=Baktburu kugis
TTITLE3=To zini tu
TTITLE4=Vienu pasu Janu zali
TTITLE5=Taluma paliek majas
TTITLE6=Tavsas laimes kugis
TTITLE7=Supuldziesma sev
TTITLE8=Ir viss tik skaists
TTITLE9=Paradizi meklejot
TTITLE10=Saki mat
TTITLE11=Tu saki
TTITLE12=Kapec tu
TTITLE13=Lauzta roze
TTITLE14=Vienmer ta but
TTITLE15=O mamy blue
TTITLE16=Dziesma par mani veju un tevi
TTITLE17=Mac kopa
EXTD=
EXTT0=
EXTT1=
EXTT2=
EXTT3=
EXTT4=
EXTT5=
EXTT6=
EXTT7=
EXTT8=
EXTT9=
EXTT10=
EXTT11=
EXTT12=
EXTT13=
EXTT14=
EXTT15=
EXTT16=
EXTT17=
PLAYORDER=
